<svg width="20" height="22" viewBox="0 0 20 22" fill="none" xmlns="http://www.w3.org/2000/svg">
<path d="M19.1748 0.161679C18.927 0.035827 18.6489 -0.0182833 18.3719 0.00544795C18.0949 0.0291792 17.8301 0.129808 17.6072 0.295992L5.44697 9.3034C5.25865 9.44291 5.10563 9.62461 5.0002 9.83392C4.89476 10.0432 4.83984 10.2743 4.83984 10.5087C4.83984 10.7431 4.89476 10.9742 5.0002 11.1835C5.10563 11.3928 5.25865 11.5745 5.44697 11.714L17.607 20.7215C17.8303 20.8869 18.095 20.987 18.3718 21.0107C18.6486 21.0344 18.9265 20.9808 19.1746 20.8558C19.4227 20.7308 19.6313 20.5394 19.777 20.3029C19.9227 20.0663 19.9998 19.794 19.9998 19.5162V1.50137C20.0007 1.22339 19.9239 0.950696 19.7782 0.714C19.6324 0.477303 19.4235 0.286012 19.1748 0.161679ZM17.9998 18.5236L7.17985 10.5088L17.9998 2.49419V18.5236Z" fill="white"/>
<path d="M2.00001 0.000473022H0V21.0005H2.00001V0.000473022Z" fill="white"/>
</svg>
