<svg width="20" height="22" viewBox="0 0 20 22" fill="none" xmlns="http://www.w3.org/2000/svg">
<path d="M14.5528 9.30208L2.39281 0.294643C2.16958 0.12929 1.9048 0.02918 1.62801 0.00547253C1.35121 -0.0182349 1.07327 0.0353916 0.825168 0.160374C0.577062 0.285357 0.368539 0.476786 0.222842 0.713322C0.0771452 0.949859 -1.00262e-06 1.22221 2.30479e-06 1.50002V19.5148C-0.000485174 19.7928 0.0763651 20.0654 0.221961 20.3023C0.367557 20.5391 0.576159 20.7308 0.824444 20.8558C1.07273 20.9809 1.35091 21.0345 1.62788 21.0105C1.90486 20.9865 2.1697 20.886 2.39281 20.7201L14.5528 11.7128C14.7411 11.5733 14.8942 11.3916 14.9996 11.1822C15.105 10.9729 15.1599 10.7418 15.1599 10.5075C15.1599 10.2731 15.105 10.042 14.9996 9.83266C14.8942 9.62335 14.7411 9.44159 14.5528 9.30208ZM2 18.5219V2.49258L12.8199 10.5074L2 18.5219Z" fill="white"/>
<path d="M20 0.0157013H18V21.0157H20V0.0157013Z" fill="white"/>
</svg>
