<svg width="27" height="27" viewBox="0 0 27 27" fill="none" xmlns="http://www.w3.org/2000/svg">
<path d="M1 13.5C1 9.125 3.5 7.25 7.25 7.25H19.75C23.5 7.25 26 9.125 26 13.5V19.75C26 24.125 23.5 26 19.75 26H7.25C3.5 26 1 24.125 1 19.75V18.7125" stroke="white" stroke-width="1.43" stroke-miterlimit="10" stroke-linecap="round" stroke-linejoin="round"/>
<path d="M18.5 4.125H21" stroke="white" stroke-width="1.43" stroke-miterlimit="10" stroke-linecap="round" stroke-linejoin="round"/>
<path d="M6 4.125H14.9625" stroke="white" stroke-width="1.43" stroke-miterlimit="10" stroke-linecap="round" stroke-linejoin="round"/>
<path d="M9.75 1H17.25" stroke="white" stroke-width="1.43" stroke-miterlimit="10" stroke-linecap="round" stroke-linejoin="round"/>
<path d="M9.61191 22.3874C10.5577 22.3874 11.3244 21.6206 11.3244 20.6749C11.3244 19.729 10.5577 18.9624 9.61191 18.9624C8.66613 18.9624 7.89941 19.729 7.89941 20.6749C7.89941 21.6206 8.66613 22.3874 9.61191 22.3874Z" stroke="white" stroke-width="1.43" stroke-linecap="round" stroke-linejoin="round"/>
<path d="M17.5997 19.5375V12.8499C17.5997 11.4249 16.7122 11.225 15.7997 11.475L12.3746 12.4125C11.7496 12.5875 11.3247 13.0749 11.3247 13.7874V14.975V15.775V20.675" stroke="white" stroke-width="1.43" stroke-linecap="round" stroke-linejoin="round"/>
<path d="M15.8863 21.25C16.8321 21.25 17.5988 20.4832 17.5988 19.5375C17.5988 18.5916 16.8321 17.825 15.8863 17.825C14.9405 17.825 14.1738 18.5916 14.1738 19.5375C14.1738 20.4832 14.9405 21.25 15.8863 21.25Z" stroke="white" stroke-width="1.43" stroke-linecap="round" stroke-linejoin="round"/>
<path d="M11.3247 15.7875L17.5997 14.075" stroke="white" stroke-width="1.43" stroke-linecap="round" stroke-linejoin="round"/>
</svg>
