<svg width="43" height="43" viewBox="0 0 43 43" fill="none" xmlns="http://www.w3.org/2000/svg">
<path d="M33.349 20.5055L16.0146 10.1875C15.8123 10.0671 15.5816 10.0024 15.3462 10.0001C15.1107 9.99772 14.8788 10.0578 14.6741 10.1742C14.4694 10.2905 14.2992 10.4591 14.1808 10.6626C14.0624 10.8661 14 11.0974 14 11.3329V31.5561C14.0003 31.7895 14.0618 32.0187 14.1783 32.2208C14.2949 32.423 14.4625 32.591 14.6643 32.7082C14.8661 32.8253 15.0952 32.8874 15.3285 32.8884C15.5619 32.8893 15.7914 32.829 15.9942 32.7134L33.3284 22.8083C33.5307 22.6927 33.6992 22.5261 33.817 22.3251C33.9348 22.1242 33.9979 21.8958 33.9999 21.6628C34.002 21.4299 33.943 21.2005 33.8287 20.9974C33.7145 20.7944 33.549 20.6248 33.3488 20.5057L33.349 20.5055ZM15.7772 30.7905V12.1144L31.7853 21.643L15.7772 30.7905Z" fill="white"/>
<circle cx="21.5" cy="21.5" r="21" stroke="white"/>
</svg>
