<svg width="9" height="11" viewBox="0 0 9 11" fill="none" xmlns="http://www.w3.org/2000/svg">
<path d="M2.16469 0H1.08234C0.795288 0 0.51999 0.114032 0.317011 0.317011C0.114033 0.51999 0 0.795288 0 1.08234V9.74109C0 10.0281 0.114033 10.3034 0.317011 10.5064C0.51999 10.7094 0.795288 10.8234 1.08234 10.8234H2.16469C2.45174 10.8234 2.72704 10.7094 2.93002 10.5064C3.133 10.3034 3.24703 10.0281 3.24703 9.74109V1.08234C3.24703 0.795288 3.133 0.51999 2.93002 0.317011C2.72704 0.114032 2.45174 0 2.16469 0Z" fill="#FF9900"/>
<path d="M7.57641 0H6.49406C6.20701 0 5.93171 0.114032 5.72873 0.317011C5.52575 0.51999 5.41172 0.795288 5.41172 1.08234V9.74109C5.41172 10.0281 5.52575 10.3034 5.72873 10.5064C5.93171 10.7094 6.20701 10.8234 6.49406 10.8234H7.57641C7.86346 10.8234 8.13876 10.7094 8.34174 10.5064C8.54472 10.3034 8.65875 10.0281 8.65875 9.74109V1.08234C8.65875 0.795288 8.54472 0.51999 8.34174 0.317011C8.13876 0.114032 7.86346 0 7.57641 0Z" fill="#FF9900"/>
</svg>
