<svg width="27" height="25" viewBox="0 0 27 25" fill="none" xmlns="http://www.w3.org/2000/svg">
<path d="M25.1997 9.28915V12.2979C25.1978 13.9682 24.5334 15.5695 23.3524 16.7506C22.1713 17.9316 20.57 18.596 18.8997 18.5979H3.52248L6.03606 16.0843L4.76335 14.8115L2.24971 17.3251L2.00137 17.5734L0.113281 19.4616L4.27701 24.1458L5.6224 22.95L3.3539 20.3979H18.8997C23.3659 20.3979 26.9997 16.7641 26.9997 12.2979V7.48915L25.1997 9.28915Z" fill="white"/>
<path d="M1.8 11.8479C1.80189 10.1776 2.46624 8.57631 3.64731 7.39524C4.82838 6.21418 6.42971 5.54982 8.09999 5.54793H23.4772L20.9636 8.06157L22.2363 9.33428L24.75 6.8207L24.9815 6.58917L26.8864 4.68427L22.7227 0L21.3773 1.19587L23.6458 3.74793H8.09999C3.63374 3.74793 0 7.38168 0 11.8479V16.6734L1.8 14.8734V11.8479Z" fill="white"/>
</svg>
