<svg width="18" height="18" viewBox="0 0 18 18" fill="none" xmlns="http://www.w3.org/2000/svg">
<g id="&#240;&#159;&#166;&#134; icon &#34;sign out&#34;">
<path id="Vector" fill-rule="evenodd" clip-rule="evenodd" d="M12.0535 2.36526V4.44989L13.3898 3.12695V0.668151L12.7216 0H0.694877L0.026726 0.668151V1.31759L0 1.3363V15.0869L0.481069 15.7016L7.16258 18L8.01782 17.3719V16.0356H12.7216L13.3898 15.3675V12.9488L12.0535 11.6125V14.6993H8.01782V3.62138L7.57684 3.00668L2.72071 1.3363H12.0535V2.36526ZM6.68151 16.4098L1.3363 14.6192V2.29844L6.68151 4.08909V16.4098ZM15.3942 8.65924H8.75278V7.32294H15.3408L13.2027 5.18486L14.1514 4.24944L17.4521 7.53675V8.48552L14.1247 11.7996L13.1893 10.8641L15.3942 8.65924Z" fill="black"/>
</g>
</svg>
