<svg width="20" height="20" viewBox="0 0 20 20" fill="none" xmlns="http://www.w3.org/2000/svg">
<path d="M5.39054 4.33333H0V15.6667H5.39054L9.72388 20H11.3333V0H9.72388L5.39054 4.33333ZM4.66667 14.3333H1.33333V5.66667H4.66667V14.3333ZM10 18.3905L6 14.3905V5.60946L10 1.60946V18.3905Z" fill="white"/>
<path d="M16.3334 10C16.3323 9.02789 15.9456 8.0959 15.2583 7.4085C14.5709 6.72111 13.6389 6.33445 12.6667 6.33334V7.66668C13.2856 7.66668 13.8791 7.91251 14.3167 8.35009C14.7542 8.78768 15.0001 9.38117 15.0001 10C15.0001 10.6188 14.7542 11.2123 14.3167 11.6499C13.8791 12.0875 13.2856 12.3333 12.6667 12.3333V13.6667C13.6389 13.6656 14.5709 13.2789 15.2583 12.5915C15.9456 11.9041 16.3323 10.9721 16.3334 10Z" fill="white"/>
<path d="M12.6667 1.72688V3.07176C16.0545 3.55834 18.6667 6.47967 18.6667 10C18.6667 13.5203 16.0545 16.4417 12.6667 16.9283V18.2731C16.792 17.7775 20.0001 14.2566 20.0001 10C20.0001 5.74342 16.792 2.22251 12.6667 1.72688Z" fill="white"/>
</svg>
