<svg width="22" height="26" viewBox="0 0 22 26" fill="none" xmlns="http://www.w3.org/2000/svg">
<path d="M10.9375 26C12.6621 26 14.0611 24.5872 14.0611 22.8439H7.814C7.814 24.5872 9.21292 26 10.9375 26ZM21.4546 18.6173C20.5113 17.5936 18.7461 16.0535 18.7461 11.0088C18.7461 7.17718 16.086 4.1099 12.4991 3.35738V2.3297C12.4991 1.45834 11.7998 0.751678 10.9375 0.751678C10.0752 0.751678 9.37601 1.45834 9.37601 2.3297V3.35738C5.7891 4.1099 3.12894 7.17718 3.12894 11.0088C3.12894 16.0535 1.3638 17.5936 0.420444 18.6173C0.127475 18.9354 -0.00240765 19.3156 3.37592e-05 19.6879C0.00540485 20.4966 0.633823 21.2659 1.56742 21.2659H20.3077C21.2412 21.2659 21.8702 20.4966 21.875 19.6879C21.8775 19.3156 21.7476 18.9349 21.4546 18.6173Z" fill="url(#paint0_linear_19_227)"/>
<defs>
<linearGradient id="paint0_linear_19_227" x1="0" y1="0.751678" x2="24.9909" y2="22.4037" gradientUnits="userSpaceOnUse">
<stop stop-color="#FF6FD8"/>
<stop offset="1" stop-color="#3813C2"/>
</linearGradient>
</defs>
</svg>
