<?xml version="1.0" encoding="utf-8"?>
<!-- Generator: Adobe Illustrator 25.2.3, SVG Export Plug-In . SVG Version: 6.00 Build 0)  -->
<svg version="1.1" id="Layer_1" xmlns="http://www.w3.org/2000/svg" xmlns:xlink="http://www.w3.org/1999/xlink" x="0px" y="0px"
	 viewBox="0 0 841.89 595.28" style="enable-background:new 0 0 841.89 595.28;" xml:space="preserve">
<style type="text/css">
	.st0{fill:url(#SVGID_1_);}
	.st1{fill:url(#SVGID_2_);}
	.st2{fill:url(#SVGID_3_);}
	.st3{fill:url(#SVGID_4_);}
	.st4{fill:url(#SVGID_5_);}
	.st5{fill:url(#SVGID_6_);}
	.st6{fill:url(#SVGID_7_);}
	.st7{fill:url(#SVGID_8_);}
	.st8{fill:url(#SVGID_9_);}
	.st9{fill:url(#SVGID_10_);}
	.st10{fill:url(#SVGID_11_);}
	.st11{fill:url(#SVGID_12_);}
	.st12{fill:url(#SVGID_13_);}
</style>
<radialGradient id="SVGID_1_" cx="175.5328" cy="271.0851" r="207.1984" gradientUnits="userSpaceOnUse">
	<stop  offset="0" style="stop-color:#FFFFFF"/>
	<stop  offset="1" style="stop-color:#FBB040;stop-opacity:0.5"/>
</radialGradient>
<path class="st0" d="M328.5,407.15H97.1c-7.76,0-14.06-6.29-14.06-14.06V155.67c0-7.76,6.29-14.06,14.06-14.06H328.5
	c7.76,0,14.06,6.29,14.06,14.06v237.42C342.56,400.86,336.27,407.15,328.5,407.15z"/>
<g>
	<linearGradient id="SVGID_2_" gradientUnits="userSpaceOnUse" x1="215.5092" y1="313.9986" x2="213.4262" y2="273.4974">
		<stop  offset="0" style="stop-color:#F7941D"/>
		<stop  offset="1" style="stop-color:#EF4136"/>
	</linearGradient>
	<polygon class="st1" points="179.05,296.29 179.05,236.58 194.67,220.26 194.67,255.32 229.39,255.67 229.39,219.22 247.09,236.92 
		247.09,296.29 230.08,313.83 230.43,276.15 196.41,275.82 196.06,313.83 	"/>
	<linearGradient id="SVGID_3_" gradientUnits="userSpaceOnUse" x1="213.0717" y1="279.3908" x2="213.0717" y2="226.6236">
		<stop  offset="0" style="stop-color:#F7941D"/>
		<stop  offset="1" style="stop-color:#EF4136"/>
	</linearGradient>
	<polygon class="st2" points="247.09,236.92 247.09,251.06 230.41,278.88 230.43,276.15 196.41,275.82 196.39,278.27 179.05,256.16 
		179.05,236.57 194.67,220.26 194.67,255.32 229.39,255.67 229.39,219.22 	"/>
	<linearGradient id="SVGID_4_" gradientUnits="userSpaceOnUse" x1="227.994" y1="228.3915" x2="208.5534" y2="218.517">
		<stop  offset="0" style="stop-color:#F7941D"/>
		<stop  offset="1" style="stop-color:#EF4136"/>
	</linearGradient>
	<path class="st3" d="M220.32,209.11c-1.43,0-2.58,1.16-2.58,2.58v7.5c-2.17-0.22-2.31-1.9-2.31-1.9s-0.03,0.46-0.08,1.16v-11.57
		h-0.03c0.02-0.11,0.03-0.23,0.03-0.35c0-1.43-1.16-2.58-2.58-2.58c-1.43,0-2.58,1.16-2.58,2.58c0,0.12,0.01,0.23,0.03,0.35h-0.03
		v10.41c0,0-0.15,1.69-2.31,1.9v-7.5c0-1.43-1.16-2.58-2.58-2.58c-1.43,0-2.58,1.16-2.58,2.58v19.29c0,1.43,1.16,2.58,2.58,2.58
		c1.43,0,2.58-1.16,2.58-2.58v-8.54c0.56-0.01,1.73,0.1,2.31,0.97v10.15c0,1.43,1.16,2.58,2.58,2.58c1.43,0,2.58-1.16,2.58-2.58
		v-10.03c0.55-0.99,1.81-1.1,2.39-1.09v8.54c0,1.43,1.16,2.58,2.58,2.58c1.43,0,2.58-1.16,2.58-2.58V211.7
		C222.91,210.27,221.75,209.11,220.32,209.11z"/>
	<linearGradient id="SVGID_5_" gradientUnits="userSpaceOnUse" x1="276.1159" y1="278.2697" x2="200.5137" y2="241.5487">
		<stop  offset="0" style="stop-color:#F7941D"/>
		<stop  offset="1" style="stop-color:#EF4136"/>
	</linearGradient>
	<path class="st4" d="M172.92,295.59v-66.88c0,0,2.08-22.22,23.14-32.17c21.06-9.95,40.27,3.93,40.27,3.93s15.51,11.34,15.97,28.93
		s0,66.19,0,66.19s23.61,0.69,23.61-25.46c0-19.21-14.35-23.37-14.35-23.37s4.63-32.29-13.19-48.14s-31.4-16.89-45.67-14.81
		c-14.27,2.08-26.31,15.51-31.17,21.99c-4.86,6.48-9.49,20.37-8.1,40.04c0,0-14.12,6.67-13.65,20.69
		C150.24,280.55,151.16,291.66,172.92,295.59z"/>
	<g>
		<linearGradient id="SVGID_6_" gradientUnits="userSpaceOnUse" x1="105.6579" y1="319.0901" x2="107.7833" y2="361.5992">
			<stop  offset="0" style="stop-color:#F7941D"/>
			<stop  offset="1" style="stop-color:#EF4136"/>
		</linearGradient>
		<path class="st5" d="M117.62,323.66v25.05h-5.33v-10.67h-11.55v10.67h-5.33v-25.05h5.33v9.04h11.55v-9.04H117.62z"/>
		<linearGradient id="SVGID_7_" gradientUnits="userSpaceOnUse" x1="131.7553" y1="317.7852" x2="133.8807" y2="360.2944">
			<stop  offset="0" style="stop-color:#F7941D"/>
			<stop  offset="1" style="stop-color:#EF4136"/>
		</linearGradient>
		<path class="st6" d="M143.88,323.61v5.33h-22.42v-4.33l0-1H143.88z M126.79,343.37h17.09v5.33h-22.42v-4.33l0-1v-10.75l5.33,0.03
			h14.85v5.33h-14.85V343.37z"/>
		<linearGradient id="SVGID_8_" gradientUnits="userSpaceOnUse" x1="158.1583" y1="316.4651" x2="160.2838" y2="358.9742">
			<stop  offset="0" style="stop-color:#F7941D"/>
			<stop  offset="1" style="stop-color:#EF4136"/>
		</linearGradient>
		<path class="st7" d="M171.03,323.54l-1.16,1.59l-8.22,11.24l-0.25,0.34l-0.01,0.01l-0.01,0.01l0,0l-0.19,0.26v11.7h-5.33v-11.69
			l-0.2-0.27l0,0l-0.01-0.01l-0.01-0.01l-0.25-0.34l-8.22-11.24l-1.16-1.59h6.6l0.3,0.41l5.61,7.67l5.61-7.67l0.3-0.41H171.03z"/>
		<linearGradient id="SVGID_9_" gradientUnits="userSpaceOnUse" x1="199.5636" y1="314.3948" x2="201.689" y2="356.904">
			<stop  offset="0" style="stop-color:#F7941D"/>
			<stop  offset="1" style="stop-color:#EF4136"/>
		</linearGradient>
		<path class="st8" d="M216.72,323.37v25.33h-4.27v-19.97l-11.24,15.99h-1.06l-11.33-15.99v19.97h-4.25v-25.33h5.36l11.05,15.65
			l10.98-15.65H216.72z"/>
		<linearGradient id="SVGID_10_" gradientUnits="userSpaceOnUse" x1="236.1275" y1="312.5667" x2="238.253" y2="355.0757">
			<stop  offset="0" style="stop-color:#F7941D"/>
			<stop  offset="1" style="stop-color:#EF4136"/>
		</linearGradient>
		<path class="st9" d="M227.9,344.72h18.55v-21.35h4.25v19.75c0,1.04-0.1,1.91-0.29,2.62c-0.19,0.71-0.51,1.29-0.95,1.73
			c-0.44,0.44-1.01,0.75-1.73,0.95c-0.71,0.19-1.59,0.29-2.62,0.29h-15.87c-1.04,0-1.91-0.1-2.62-0.29
			c-0.71-0.19-1.28-0.51-1.71-0.95c-0.43-0.44-0.74-1.01-0.95-1.73c-0.2-0.71-0.31-1.59-0.31-2.62v-19.75h4.25V344.72z"/>
		<linearGradient id="SVGID_11_" gradientUnits="userSpaceOnUse" x1="268.3699" y1="310.9545" x2="270.4954" y2="353.4636">
			<stop  offset="0" style="stop-color:#F7941D"/>
			<stop  offset="1" style="stop-color:#EF4136"/>
		</linearGradient>
		<path class="st10" d="M278.62,330.36v-3h-17.4v6.49h16.6c1.01,0,1.88,0.1,2.59,0.29c0.71,0.19,1.29,0.51,1.73,0.96
			c0.44,0.45,0.75,1.02,0.95,1.72c0.19,0.7,0.29,1.58,0.29,2.61v3.69c0,1.04-0.1,1.91-0.29,2.62c-0.19,0.71-0.51,1.29-0.95,1.73
			c-0.44,0.44-1.01,0.75-1.73,0.95c-0.71,0.19-1.57,0.29-2.59,0.29h-15.91c-1.04,0-1.91-0.1-2.61-0.29
			c-0.7-0.19-1.27-0.51-1.71-0.95c-0.44-0.44-0.75-1.01-0.95-1.73c-0.19-0.71-0.29-1.59-0.29-2.62v-1.09l4.21-0.93v3.62h18.58v-7.14
			h-16.6c-2.05,0-3.5-0.41-4.33-1.23c-0.83-0.82-1.25-2.26-1.25-4.31v-3.08c0-2.05,0.42-3.5,1.25-4.33
			c0.83-0.83,2.28-1.25,4.33-1.25h14.72c1.04,0,1.91,0.1,2.62,0.31c0.71,0.2,1.29,0.52,1.73,0.95c0.45,0.43,0.76,1,0.96,1.72
			c0.19,0.72,0.29,1.59,0.29,2.61v0.54L278.62,330.36z"/>
		<linearGradient id="SVGID_12_" gradientUnits="userSpaceOnUse" x1="290.634" y1="309.8413" x2="292.7594" y2="352.3504">
			<stop  offset="0" style="stop-color:#F7941D"/>
			<stop  offset="1" style="stop-color:#EF4136"/>
		</linearGradient>
		<path class="st11" d="M289.82,323.37h4.25v25.33h-4.25V323.37z"/>
		<linearGradient id="SVGID_13_" gradientUnits="userSpaceOnUse" x1="313.5627" y1="308.6949" x2="315.6882" y2="351.204">
			<stop  offset="0" style="stop-color:#F7941D"/>
			<stop  offset="1" style="stop-color:#EF4136"/>
		</linearGradient>
		<path class="st12" d="M324.82,332.68v-5.32h-19.82v17.36h19.82v-5.88l4.27,0.91v3.38c0,1.04-0.1,1.91-0.31,2.62
			c-0.2,0.71-0.52,1.29-0.96,1.73c-0.43,0.44-1.01,0.75-1.72,0.95c-0.72,0.19-1.58,0.29-2.6,0.29h-17.17c-1.04,0-1.91-0.1-2.61-0.29
			c-0.7-0.19-1.27-0.51-1.71-0.95c-0.44-0.44-0.75-1.01-0.95-1.73c-0.19-0.71-0.29-1.59-0.29-2.62v-14.17c0-2.05,0.41-3.5,1.23-4.33
			c0.82-0.83,2.26-1.25,4.31-1.25h17.17c2.05,0,3.5,0.42,4.33,1.25c0.83,0.83,1.25,2.28,1.25,4.33v2.82L324.82,332.68z"/>
	</g>
</g>
</svg>
